<svg width="301" height="201" viewBox="0 0 301 201" fill="none" xmlns="http://www.w3.org/2000/svg">
<path d="M193.014 43.6282C193.014 43.6282 223.16 69.2375 250.818 91.9932C278.476 114.749 300.427 116.651 300.5 122.139C300.5 127.554 293.11 130.188 265.598 131.797C238.013 133.334 200.77 156.456 173.844 151.7C173.844 151.7 154.454 123.968 150.356 105.456C146.186 86.8713 193.014 43.6282 193.014 43.6282Z" fill="#EAB363"/>
<path d="M173.844 151.7C173.844 151.7 154.454 123.968 150.356 105.456C146.186 86.8713 193.014 43.6282 193.014 43.6282C193.014 43.6282 194.477 44.8721 197.038 46.994C194.185 65.3595 184.892 124.846 177.575 152.212C176.307 152.065 175.063 151.895 173.844 151.7Z" fill="#FFD399"/>
<path d="M170.331 135.236C170.331 135.236 157.527 106.7 159.502 98.6516C161.405 90.5298 189.282 56.3596 189.282 56.3596C189.721 65.0668 170.331 135.236 170.331 135.236Z" fill="#8C5E28"/>
<path d="M133.6 101.871C133.6 101.871 144.21 109.115 143.405 112.261C142.6 115.481 136.015 117.31 136.015 117.31C136.015 117.31 129.43 121.993 127.235 121.993C125.04 121.993 122.698 116.578 122.698 116.578L119.918 101.871H133.6Z" fill="#FFD399"/>
<path d="M122.698 132.749C122.698 132.749 122.552 139.114 104.552 142.919C86.5524 146.651 38.4801 152.504 16.3097 157.48C-5.86065 162.455 -0.226596 138.675 6.43183 131.944C13.0903 125.212 37.0167 73.9935 44.0409 62.2863C51.0652 50.6524 62.4065 45.2379 62.4065 45.2379C87.3573 52.628 122.698 132.749 122.698 132.749Z" fill="#EAB363"/>
<path d="M122.698 132.749C122.698 132.749 122.698 133.773 121.454 135.309C104.698 125.212 66.9428 61.4083 61.382 54.0182C59.4064 51.3109 59.26 48.8232 59.9917 46.6281C61.5283 45.6769 62.4063 45.2379 62.4063 45.2379C87.3571 52.628 122.698 132.749 122.698 132.749Z" fill="#FFD399"/>
<path d="M127.893 121.92C127.649 121.968 127.43 121.993 127.235 121.993C125.04 121.993 122.698 116.578 122.698 116.578L119.918 101.871H133.6C133.6 101.871 140.259 106.408 142.6 109.847L126.064 112.115L127.893 121.92Z" fill="#EAB363"/>
<path d="M153.21 137.212C153.21 137.212 147.868 147.456 142.015 146.504C136.161 145.553 133.6 133.334 133.6 133.334C145.673 131.358 153.21 137.212 153.21 137.212Z" fill="#EAB363"/>
<path d="M137.332 142.846C134.771 138.895 133.6 133.334 133.6 133.334C139.966 132.31 145.088 133.48 148.527 134.797C145.82 137.578 140.844 140.797 137.332 142.846Z" fill="#FFD399"/>
<path d="M64.4553 71.7984C65.9187 76.5544 60.0651 77.7251 50.2604 78.969C40.5289 80.1397 35.6265 87.9689 40.0167 78.969C44.4068 69.896 54.2116 58.0425 54.2116 58.0425C54.2116 58.0425 62.9919 66.9692 64.4553 71.7984Z" fill="#F4CD9A"/>
<path d="M202.453 58.0425C202.453 58.0425 226.891 81.8958 231.282 83.2128C235.672 84.5299 226.891 94.8468 219.575 91.1883C212.258 87.4567 197.038 87.9689 197.038 87.9689L202.453 58.0425Z" fill="#F4CD9A"/>
</svg>
